HIERARCHY
ROOT hip
{
  OFFSET 0 0 0
  CHANNELS 6 Xposition Yposition Zposition Zrotation Yrotation Xrotation
  JOINT abdomen
  {
    OFFSET 0 20.6881 -0.73152
    CHANNELS 3 Zrotation Xrotation Yrotation
    JOINT chest
    {
      OFFSET 0 11.7043 -0.48768
      CHANNELS 3 Zrotation Xrotation Yrotation
      JOINT neck
      {
        OFFSET 0 22.1894 -2.19456
        CHANNELS 3 Zrotation Xrotation Yrotation
        JOINT head
        {
          OFFSET -0.24384 7.07133 1.2192
          CHANNELS 3 Zrotation Xrotation Yrotation
          JOINT leftEye
          {
            OFFSET 4.14528 8.04674 8.04672
            CHANNELS 3 Zrotation Xrotation Yrotation
            End Site
            {
              OFFSET 1 0 0
            }
          }
          JOINT rightEye
          {
            OFFSET -3.6576 8.04674 8.04672
            CHANNELS 3 Zrotation Xrotation Yrotation
            End Site
            {
              OFFSET 1 0 0
            }
          }
        }
      }
      JOINT rCollar
      {
        OFFSET -2.68224 19.2634 -4.8768
        CHANNELS 3 Zrotation Xrotation Yrotation
        JOINT rShldr
        {
          OFFSET -8.77824 -1.95073 1.46304
          CHANNELS 3 Zrotation Xrotation Yrotation
          JOINT rForeArm
          {
            OFFSET -28.1742 -1.7115 0.48768
            CHANNELS 3 Zrotation Xrotation Yrotation
            JOINT rHand
            {
              OFFSET -22.5879 0.773209 7.07136
              CHANNELS 3 Zrotation Xrotation Yrotation
              JOINT rThumb1
              {
                OFFSET -1.2192 -0.487915 3.41376
                CHANNELS 3 Zrotation Xrotation Yrotation
                JOINT rThumb2
                {
                  OFFSET -3.37035 -0.52449 3.41376
                  CHANNELS 3 Zrotation Xrotation Yrotation
                  End Site
                  {
                    OFFSET -1.78271 -1.18214 1.43049
                  }
                }
              }
              JOINT rIndex1
              {
                OFFSET -7.75947 0.938293 5.60832
                CHANNELS 3 Zrotation Xrotation Yrotation
                JOINT rIndex2
                {
                  OFFSET -2.54057 -0.884171 1.56538
                  CHANNELS 3 Zrotation Xrotation Yrotation
                  End Site
                  {
                    OFFSET -1.62519 -0.234802 1.16502
                  }
                }
              }
              JOINT rMid1
              {
                OFFSET -8.24714 1.18213 3.41376
                CHANNELS 3 Zrotation Xrotation Yrotation
                JOINT rMid2
                {
                  OFFSET -3.10165 -0.590103 1.0647
                  CHANNELS 3 Zrotation Xrotation Yrotation
                  End Site
                  {
                    OFFSET -2.48547 -0.328903 0.83742
                  }
                }
              }
              JOINT rRing1
              {
                OFFSET -8.82822 0.546677 1.51678
                CHANNELS 3 Zrotation Xrotation Yrotation
                JOINT rRing2
                {
                  OFFSET -2.60934 -0.819778 -0.0198488
                  CHANNELS 3 Zrotation Xrotation Yrotation
                  End Site
                  {
                    OFFSET -2.33842 -0.294052 0.168128
                  }
                }
              }
              JOINT rPinky1
              {
                OFFSET -8.27202 -0.0477905 -0.4584
                CHANNELS 3 Zrotation Xrotation Yrotation
                JOINT rPinky2
                {
                  OFFSET -1.82734 -0.647385 -0.700984
                  CHANNELS 3 Zrotation Xrotation Yrotation
                  End Site
                  {
                    OFFSET -1.69225 -0.51767 -0.607171
                  }
                }
              }
            }
          }
        }
      }
      JOINT lCollar
      {
        OFFSET 2.68224 19.2634 -4.8768
        CHANNELS 3 Zrotation Xrotation Yrotation
        JOINT lShldr
        {
          OFFSET 8.77824 -1.95073 1.46304
          CHANNELS 3 Zrotation Xrotation Yrotation
          JOINT lForeArm
          {
            OFFSET 28.1742 -1.7115 0.48768
            CHANNELS 3 Zrotation Xrotation Yrotation
            JOINT lHand
            {
              OFFSET 22.5879 0.773209 7.07136
              CHANNELS 3 Zrotation Xrotation Yrotation
              JOINT lThumb1
              {
                OFFSET 1.2192 -0.487915 3.41376
                CHANNELS 3 Zrotation Xrotation Yrotation
                JOINT lThumb2
                {
                  OFFSET 3.37035 -0.52449 3.41376
                  CHANNELS 3 Zrotation Xrotation Yrotation
                  End Site
                  {
                    OFFSET 1.78271 -1.18214 1.43049
                  }
                }
              }
              JOINT lIndex1
              {
                OFFSET 7.75947 0.938293 5.60832
                CHANNELS 3 Zrotation Xrotation Yrotation
                JOINT lIndex2
                {
                  OFFSET 2.54057 -0.884171 1.56538
                  CHANNELS 3 Zrotation Xrotation Yrotation
                  End Site
                  {
                    OFFSET 1.62519 -0.234802 1.16502
                  }
                }
              }
              JOINT lMid1
              {
                OFFSET 8.24714 1.18213 3.41376
                CHANNELS 3 Zrotation Xrotation Yrotation
                JOINT lMid2
                {
                  OFFSET 3.10165 -0.590103 1.0647
                  CHANNELS 3 Zrotation Xrotation Yrotation
                  End Site
                  {
                    OFFSET 2.48547 -0.328903 0.83742
                  }
                }
              }
              JOINT lRing1
              {
                OFFSET 8.82822 0.546677 1.51678
                CHANNELS 3 Zrotation Xrotation Yrotation
                JOINT lRing2
                {
                  OFFSET 2.60934 -0.819778 -0.0198488
                  CHANNELS 3 Zrotation Xrotation Yrotation
                  End Site
                  {
                    OFFSET 2.33842 -0.294052 0.168128
                  }
                }
              }
              JOINT lPinky1
              {
                OFFSET 8.27202 -0.0477905 -0.4584
                CHANNELS 3 Zrotation Xrotation Yrotation
                JOINT lPinky2
                {
                  OFFSET 1.82734 -0.647385 -0.700984
                  CHANNELS 3 Zrotation Xrotation Yrotation
                  End Site
                  {
                    OFFSET 1.69225 -0.51767 -0.607171
                  }
                }
              }
            }
          }
        }
      }
    }
  }
  JOINT rButtock
  {
    OFFSET -8.77824 4.35084 1.2192
    CHANNELS 3 Zrotation Xrotation Yrotation
    JOINT rThigh
    {
      OFFSET 0 -1.70687 -2.19456
      CHANNELS 3 Zrotation Xrotation Yrotation
      JOINT rShin
      {
        OFFSET 0 -36.8199 0.73152
        CHANNELS 3 Zrotation Xrotation Yrotation
        JOINT rFoot
        {
          OFFSET 0.73152 -45.1104 -5.12064
          CHANNELS 3 Zrotation Xrotation Yrotation
          End Site
          {
            OFFSET -1.1221 -3.69964 12.103
          }
        }
      }
    }
  }
  JOINT lButtock
  {
    OFFSET 8.77824 4.35084 1.2192
    CHANNELS 3 Zrotation Xrotation Yrotation
    JOINT lThigh
    {
      OFFSET 0 -1.70687 -2.19456
      CHANNELS 3 Zrotation Xrotation Yrotation
      JOINT lShin
      {
        OFFSET 0 -36.8199 0.73152
        CHANNELS 3 Zrotation Xrotation Yrotation
        JOINT lFoot
        {
          OFFSET -0.73152 -45.1104 -5.12064
          CHANNELS 3 Zrotation Xrotation Yrotation
          End Site
          {
            OFFSET 1.1221 -3.69964 12.103
          }
        }
      }
    }
  }
}
MOTION
Frames:	4
Frame Time:	0.03333
0.6937745027244091 60.19732356071472 27.91810492053628 7.515883445739746 21.54835319519043 3.8067288398742676 -15.351384162902832 15.41388988494873 -2.365617275238037 5.424046993255615 -10.147826194763184 -0.8055228590965271 -7.479795455932617 16.361181259155273 -9.85781478881836 9.431412696838379 -25.74912452697754 -17.380657196044922 0.024383245036005974 0.12666496634483337 0.04495050385594368 0.017486246302723885 0.021052442491054535 0.11213856190443039 -0.19768626987934113 -0.029213661327958107 -0.031543534249067307 58.25565719604492 32.24444580078125 2.1277966499328613 -20.626218795776367 -13.271636962890625 39.163570404052734 -0.12356466799974442 9.692353248596191 1.0976788997650146 -0.2194322943687439 -0.05910675227642059 0.15290096402168274 0.0199800506234169 0.2647378742694855 0.02914702333509922 0.055089499801397324 0.21616950631141663 0.22943396866321564 7.768613815307617 5.390247344970703 0.2987392246723175 0.17213556170463562 0.042535148561000824 0.10833999514579773 2.8530962467193604 1.175267219543457 -0.06797241419553757 -0.2541872560977936 0.13167804479599 -0.12225130945444107 10.664200782775879 0.8178865313529968 -0.25992000102996826 0.15935896337032318 0.283369779586792 0.034775301814079285 2.2583158016204834 -0.566415011882782 -0.3290219306945801 0.1760222464799881 0.09293413907289505 0.08913814276456833 -66.92191314697266 38.169166564941406 -17.293466567993164 15.114455223083496 -7.837903022766113 -27.799287796020508 -0.12296755611896515 9.120614051818848 -1.2948483228683472 0.24022865295410156 -0.06873779743909836 -0.042185742408037186 0.08655529469251633 0.033404093235731125 -0.11081171780824661 0.1043701320886612 -0.17852666974067688 0.26328644156455994 -7.88225793838501 5.806894779205322 -0.48715531826019287 0.03515148162841797 0.1666027456521988 -0.20543023943901062 -2.9492931365966797 1.1160470247268677 -0.08985171467065811 -0.12481798976659775 -0.10409526526927948 -0.15671221911907196 -10.35252571105957 0.5813297629356384 -0.2017158418893814 0.08276379853487015 0.0457049235701561 -0.07216546684503555 -2.2050187587738037 -0.6230778098106384 0.4317159652709961 -0.09509523212909698 0.16613487899303436 0.14464281499385834 -59.94306182861328 -55.303955078125 -53.05461883544922 -1.6852797269821167 70.07215118408203 2.644761323928833 0.5265460014343262 -0.9972405433654785 7.809014797210693 -0.054821375757455826 0.06947016716003418 0.21725906431674957 10.780657768249512 9.375069618225098 5.357076644897461 -0.2904541790485382 37.784034729003906 -2.6651034355163574 12.709473609924316 -19.537246704101562 34.77568817138672
0.931312283501029 60.21493673324585 28.143980726599693 7.5636467933654785 21.23526954650879 4.019711494445801 -15.282405853271484 15.478657722473145 -2.3429601192474365 5.358705997467041 -10.244553565979004 -0.7989448308944702 -7.4687724113464355 16.280990600585938 -9.823354721069336 9.355900764465332 -25.86366081237793 -17.254165649414062 0.034565601497888565 0.1296113282442093 0.04516897723078728 0.017421817407011986 0.03259501978754997 0.10045827925205231 -0.17997105419635773 -0.028953667730093002 -0.03405100107192993 58.09117126464844 32.17520523071289 2.1754372119903564 -20.62175750732422 -13.242918968200684 39.148738861083984 -0.11566907167434692 9.722494125366211 1.1091285943984985 -0.21064817905426025 -0.044607024639844894 0.1476980596780777 0.008642693981528282 0.25925594568252563 0.02059788629412651 0.05608454719185829 0.23398169875144958 0.2443978488445282 7.7644124031066895 5.375364303588867 0.31243520975112915 0.14731773734092712 0.04576143994927406 0.11488781869411469 2.855607271194458 1.1710162162780762 -0.07578789442777634 -0.2539116144180298 0.10579551756381989 -0.12994299829006195 10.67590618133545 0.8170691728591919 -0.2562180459499359 0.15880759060382843 0.292419970035553 0.03214474394917488 2.2566354274749756 -0.5793297290802002 -0.3036502003669739 0.18126900494098663 0.09948012232780457 0.07804562896490097 -66.48017120361328 38.184898376464844 -17.84398078918457 15.035316467285156 -7.755197048187256 -27.62198829650879 -0.1281418353319168 9.27387523651123 -1.3130155801773071 0.22992712259292603 -0.06259077787399292 -0.04564015194773674 0.0876331701874733 0.017578324303030968 -0.11614648252725601 0.09177226573228836 -0.1922096163034439 0.27952930331230164 -7.885847568511963 5.797788619995117 -0.49398496747016907 0.04352303594350815 0.16224804520606995 -0.18779650330543518 -2.9738736152648926 1.1154104471206665 -0.08209764212369919 -0.1319814920425415 -0.08842682838439941 -0.18128134310245514 -10.354365348815918 0.568935215473175 -0.2047351598739624 0.07711778581142426 0.02937997318804264 -0.06308921426534653 -2.1984124183654785 -0.6166684031486511 0.41820675134658813 -0.09298227727413177 0.1698184758424759 0.1334921419620514 -60.4018440246582 -55.490657806396484 -53.817466735839844 -1.6740292310714722 70.49186706542969 2.658445358276367 0.35461652278900146 -1.2005730867385864 7.002200126647949 -0.051900945603847504 0.055359359830617905 0.2088341861963272 10.692729949951172 9.428166389465332 5.270479679107666 -0.3210236132144928 37.43465805053711 -2.6406564712524414 12.61812973022461 -19.283153533935547 34.80166244506836
1.156921312212944 60.21849513053894 28.40678608044982 7.565296173095703 21.825212478637695 4.013667106628418 -15.164135932922363 15.455317497253418 -2.3502237796783447 5.345994472503662 -10.297093391418457 -0.8023977875709534 -7.5077972412109375 16.247461318969727 -9.876774787902832 9.319406509399414 -25.879446029663086 -17.31455421447754 0.02920967899262905 0.1405598670244217 0.030985089018940926 0.011696908622980118 0.030228348448872566 0.06961458176374435 -0.14088700711727142 -0.031453780829906464 -0.05000758171081543 58.09775161743164 31.914670944213867 2.0775811672210693 -20.602277755737305 -13.237895965576172 39.170265197753906 -0.11156061291694641 9.85600757598877 1.1265079975128174 -0.20450760424137115 -0.03809801861643791 0.15689046680927277 -0.007665683049708605 0.2649785876274109 0.020841728895902634 0.04575406759977341 0.23433254659175873 0.24706004559993744 7.7709736824035645 5.380768299102783 0.3248152732849121 0.15444757044315338 0.05116281658411026 0.1188945472240448 2.865610122680664 1.1651067733764648 -0.08628299087285995 -0.25332003831863403 0.07769427448511124 -0.13165907561779022 10.692299842834473 0.8086246848106384 -0.27037423849105835 0.1507338583469391 0.3060648441314697 0.04181235656142235 2.2682931423187256 -0.5908744931221008 -0.29085883498191833 0.1743747591972351 0.07359021157026291 0.05907786637544632 -66.42076873779297 38.427310943603516 -17.819171905517578 15.036417961120605 -7.73540735244751 -27.580339431762695 -0.1526634246110916 9.14975357055664 -1.2993625402450562 0.22965098917484283 -0.043062973767519 -0.04534924775362015 0.0880645141005516 -0.008710861206054688 -0.12403133511543274 0.08438794314861298 -0.2116634100675583 0.29402250051498413 -7.898759841918945 5.797417640686035 -0.48333120346069336 0.04843167960643768 0.15019112825393677 -0.16548052430152893 -2.9788978099823 1.1198267936706543 -0.07323455810546875 -0.134709432721138 -0.08757633715867996 -0.19434790313243866 -10.341021537780762 0.5395103096961975 -0.20386138558387756 0.07323817908763885 0.04049044847488403 -0.06493712961673737 -2.1929378509521484 -0.6005730032920837 0.4057084023952484 -0.08985166251659393 0.17818443477153778 0.1487138271331787 -60.46319580078125 -55.476966857910156 -54.027740478515625 -1.642493486404419 70.58172607421875 2.6413981914520264 0.2570006251335144 -1.284029483795166 6.5891313552856445 -0.039748162031173706 0.04774708300828934 0.2071910947561264 10.705554008483887 9.391018867492676 5.254185676574707 -0.33788013458251953 37.2957649230957 -2.6294360160827637 12.585433959960938 -19.20519256591797 34.79072189331055
1.3953289482742548 60.30123233795166 28.696509078145027 7.489888668060303 22.74933624267578 3.857020378112793 -15.022807121276855 15.440402030944824 -2.3601620197296143 5.365506649017334 -10.327932357788086 -0.8073263168334961 -7.5655412673950195 16.288009643554688 -9.96932601928711 9.327942848205566 -25.86123275756836 -17.49497413635254 0.01597561687231064 0.16104349493980408 0.020041881129145622 0.004682185128331184 0.022393671795725822 0.04158543422818184 -0.1087912768125534 -0.050537675619125366 -0.07332911342382431 58.32896423339844 31.711753845214844 1.8504949808120728 -20.6766357421875 -13.38871955871582 39.43941116333008 -0.11786520481109619 9.893762588500977 1.1290192604064941 -0.20877811312675476 -0.045302361249923706 0.169221892952919 -0.02047322690486908 0.26752063632011414 0.02144799195230007 0.026338228955864906 0.21502399444580078 0.2507682144641876 7.796899795532227 5.397553443908691 0.3269190788269043 0.18666473031044006 0.05083140730857849 0.12055797874927521 2.879251003265381 1.1651873588562012 -0.09871134161949158 -0.2430124133825302 0.061696041375398636 -0.1311195194721222 10.727202415466309 0.7959566116333008 -0.2946941554546356 0.14109617471694946 0.31005623936653137 0.04959556460380554 2.2901124954223633 -0.5984715223312378 -0.29813671112060547 0.1624377965927124 0.036925412714481354 0.03452189639210701 -66.68158721923828 38.87153244018555 -17.45513916015625 15.184021949768066 -7.86064338684082 -27.84320831298828 -0.17514841258525848 8.821675300598145 -1.2593950033187866 0.24266409873962402 -0.018928200006484985 -0.04430391639471054 0.08648674190044403 -0.040874265134334564 -0.13622266054153442 0.07936636358499527 -0.2226136326789856 0.296424925327301 -7.923952102661133 5.811489582061768 -0.45894187688827515 0.05259993299841881 0.13615034520626068 -0.1417088359594345 -2.960747241973877 1.128198266029358 -0.07603306323289871 -0.12914195656776428 -0.10150196403265 -0.20678271353244781 -10.330734252929688 0.5164114236831665 -0.19561466574668884 0.07143621891736984 0.07505152374505997 -0.06297001987695694 -2.1879372596740723 -0.5869669318199158 0.3927735686302185 -0.07467235624790192 0.17654594779014587 0.17619919776916504 -60.38595199584961 -55.336708068847656 -53.909664154052734 -1.6378507614135742 70.55953979492188 2.646383285522461 0.2657665014266968 -1.2609535455703735 6.624070167541504 -0.031143592670559883 0.049446020275354385 0.21486958861351013 10.892163276672363 9.136359214782715 5.350887775421143 -0.3307200074195862 37.63456726074219 -2.6367509365081787 12.6514253616333 -19.330982208251953 34.76618194580078
